<?xml version="1.0" encoding="utf-8"?>
<!-- Generator: Adobe Illustrator 18.1.1, SVG Export Plug-In . SVG Version: 6.00 Build 0)  -->
<svg version="1.1" baseProfile="basic" id="Layer_1"
	 xmlns="http://www.w3.org/2000/svg" xmlns:xlink="http://www.w3.org/1999/xlink" x="0px" y="0px" viewBox="0 0 131.1 27.3"
	 xml:space="preserve">
<rect x="0" y="0" fill="#008C88" width="131.1" height="27.3"/>
<path fill="#D9F3FF" d="M10.1,12c-1.2,2.1-1.3,5,0,6.9c0.2,0.3,0.8,1.1,1.8,1.6c1.2,0.5,2.7,0.4,3.8-0.1c0.4-0.2,0.7-0.5,1.7-0.9
	c0.4-0.2,0.8-0.3,1-0.4c0,0,2-0.7,3.3-0.2c0.3,0.1,0.5,0.2,0.5,0.2c0.4,0.2,0.7,0.4,1.2,0.7c0,0,2,1.2,4.5,1.3
	c2,0.1,4.3-0.6,6.1-2.3c2.5-2.4,3.4-6.6,2.2-7.9c-1.5-1.6-5.2,3.4-10.3,2.2c-3.8-0.9-4.1-4.2-8-4.7C15.1,7.9,11.7,9.3,10.1,12z"/>
<g>
	<path fill="#BDE7FF" d="M52.3,13.8c0,1.9-0.4,3.6-1.3,5.1s-2,2.2-3.5,2.2c-0.7,0-1.6,0-2.8-0.1c0.1-2.1,0.1-4.4,0.1-6.9
		c0-2.5,0-4.6-0.1-6.3h1.2c0.2,0,0.5,0,0.9,0s0.6,0,0.8,0c1.7,0,2.9,0.6,3.6,1.8C52,10.6,52.3,12.1,52.3,13.8z M50.4,14.2
		c0-1.3-0.3-2.4-0.8-3.3c-0.5-0.9-1.3-1.3-2.4-1.3c-0.2,0-0.5,0-0.8,0.1c0,1.4,0.1,2.8,0.1,4.3c0,1.6,0,3.2,0.1,4.8
		c0.3,0.1,0.6,0.1,0.9,0.1c1,0,1.7-0.5,2.2-1.4C50.2,16.6,50.4,15.5,50.4,14.2z"/>
	<path fill="#BDE7FF" d="M59.2,20.9L57.6,21c-0.1-0.3-0.1-0.5-0.1-0.8h-0.1c-0.5,0.6-1.2,1-2.1,1c-0.6,0-1.1-0.2-1.4-0.7
		s-0.6-1.1-0.6-1.9c0-1,0.3-1.9,0.9-2.5c0.6-0.7,1.6-1,3.1-1c0-0.1,0-0.2,0-0.3c0-0.7-0.1-1.2-0.4-1.5s-0.7-0.4-1.3-0.4
		c-0.7,0-1.4,0.1-2,0.4l0.2-1.9c0.6-0.3,1.5-0.5,2.7-0.5c0.8,0,1.5,0.3,1.9,0.8c0.5,0.5,0.7,1.4,0.7,2.7c0,0.3,0,0.8,0,1.6
		c0,0.8,0,1.3,0,1.5C59,18.8,59.1,20,59.2,20.9z M57.4,18.8c0-0.9,0-1.7,0-2.4c-1.6,0-2.4,0.6-2.4,1.8c0,0.8,0.3,1.2,1,1.2
		C56.6,19.4,57,19.2,57.4,18.8z"/>
	<path fill="#BDE7FF" d="M64.7,19l-0.1,1.8c-0.3,0.2-0.7,0.3-1.2,0.3c-0.7,0-1.3-0.3-1.7-0.9c-0.4-0.6-0.6-1.7-0.6-3.5
		c0-1,0-2.2,0-3.5c-0.2,0-0.6,0-1,0.1l0-2c0.4,0,0.7,0.1,1,0.1c0-0.4,0-1.3,0.1-2.8l1.6-0.3c-0.1,1.4-0.1,2.4-0.1,3.1
		c0.4,0,1,0,1.7-0.1l-0.1,2c-0.7,0-1.3-0.1-1.7-0.1c0,0.9,0,1.9,0,2.8c0,1.2,0.1,2,0.2,2.4c0.2,0.4,0.5,0.6,0.9,0.6
		C64.1,19.2,64.4,19.1,64.7,19z"/>
	<path fill="#BDE7FF" d="M71.3,20.9L69.7,21c-0.1-0.3-0.1-0.5-0.1-0.8h-0.1c-0.5,0.6-1.2,1-2.1,1c-0.6,0-1.1-0.2-1.4-0.7
		s-0.6-1.1-0.6-1.9c0-1,0.3-1.9,0.9-2.5c0.6-0.7,1.6-1,3.1-1c0-0.1,0-0.2,0-0.3c0-0.7-0.1-1.2-0.4-1.5s-0.7-0.4-1.3-0.4
		c-0.7,0-1.4,0.1-2,0.4l0.2-1.9c0.6-0.3,1.5-0.5,2.7-0.5c0.8,0,1.5,0.3,1.9,0.8c0.5,0.5,0.7,1.4,0.7,2.7c0,0.3,0,0.8,0,1.6
		c0,0.8,0,1.3,0,1.5C71.1,18.8,71.2,20,71.3,20.9z M69.5,18.8c0-0.9,0-1.7,0-2.4c-1.6,0-2.4,0.6-2.4,1.8c0,0.8,0.3,1.2,1,1.2
		C68.7,19.4,69.1,19.2,69.5,18.8z"/>
	<path fill="#BDE7FF" d="M83.5,13.8c0,1.9-0.4,3.6-1.3,5.1s-2,2.2-3.5,2.2c-0.7,0-1.6,0-2.8-0.1c0.1-2.1,0.1-4.4,0.1-6.9
		c0-2.5,0-4.6-0.1-6.3h1.2c0.2,0,0.5,0,0.9,0s0.6,0,0.8,0c1.7,0,2.9,0.6,3.6,1.8C83.2,10.6,83.5,12.1,83.5,13.8z M81.7,14.2
		c0-1.3-0.3-2.4-0.8-3.3c-0.5-0.9-1.3-1.3-2.4-1.3c-0.2,0-0.5,0-0.8,0.1c0,1.4,0.1,2.8,0.1,4.3c0,1.6,0,3.2,0.1,4.8
		c0.3,0.1,0.6,0.1,0.9,0.1c1,0,1.7-0.5,2.2-1.4C81.4,16.6,81.7,15.5,81.7,14.2z"/>
	<path fill="#BDE7FF" d="M91.5,15.8c0,1.7-0.4,3.1-1.1,4c-0.7,1-1.6,1.4-2.5,1.4c-0.9,0-1.7-0.4-2.4-1.3c-0.7-0.9-1-2.1-1-3.7
		c0-1.7,0.4-3.1,1.1-4s1.6-1.5,2.5-1.5c0.9,0,1.7,0.4,2.4,1.3C91.2,13,91.5,14.2,91.5,15.8z M89.7,16.1c0-1-0.2-1.8-0.5-2.5
		c-0.3-0.7-0.7-1-1.2-1c-0.5,0-0.9,0.3-1.2,0.9s-0.5,1.4-0.5,2.3c0,1,0.2,1.8,0.5,2.5c0.3,0.7,0.7,1,1.2,1c0.5,0,0.9-0.3,1.2-0.9
		C89.5,17.8,89.7,17.1,89.7,16.1z"/>
	<path fill="#BDE7FF" d="M99.4,15.8c0,1.7-0.4,3.1-1.1,4c-0.7,1-1.6,1.4-2.5,1.4c-0.9,0-1.7-0.4-2.4-1.3c-0.7-0.9-1-2.1-1-3.7
		c0-1.7,0.4-3.1,1.1-4s1.6-1.5,2.5-1.5c0.9,0,1.7,0.4,2.4,1.3C99.1,13,99.4,14.2,99.4,15.8z M97.6,16.1c0-1-0.2-1.8-0.5-2.5
		c-0.3-0.7-0.7-1-1.2-1c-0.5,0-0.9,0.3-1.2,0.9s-0.5,1.4-0.5,2.3c0,1,0.2,1.8,0.5,2.5c0.3,0.7,0.7,1,1.2,1c0.5,0,0.9-0.3,1.2-0.9
		C97.4,17.8,97.6,17.1,97.6,16.1z"/>
	<path fill="#BDE7FF" d="M107,20.9l-1.6,0.1c0-0.2,0-0.5,0-0.7h-0.1c-0.5,0.6-1.2,1-1.9,1c-0.9,0-1.6-0.5-2.1-1.4
		c-0.5-0.9-0.8-2.1-0.8-3.4c0-1.5,0.3-2.8,0.8-3.9c0.6-1.1,1.4-1.7,2.4-1.7c0.7,0,1.1,0.2,1.5,0.5h0.1c0-1.6-0.1-3.2-0.2-4.8l2-0.1
		c-0.1,1.6-0.1,3.9-0.1,6.8C106.8,16.3,106.9,18.8,107,20.9z M105.2,18.6c0-2.2,0-4-0.1-5.4c-0.3-0.3-0.7-0.5-1.1-0.5
		c-0.6,0-1.1,0.3-1.4,1c-0.3,0.7-0.4,1.5-0.4,2.4c0,0.9,0.1,1.6,0.4,2.2s0.7,0.9,1.2,0.9C104.5,19.3,105,19,105.2,18.6z"/>
	<path fill="#BDE7FF" d="M110.5,20.9h-1.9c0.1-2.3,0.1-4.9,0.1-7.6c0-2.6-0.1-4.9-0.2-6.8l2-0.2c-0.1,1.9-0.1,4.2-0.1,6.9
		C110.4,16,110.4,18.6,110.5,20.9z"/>
	<path fill="#BDE7FF" d="M118.1,15c0,0.3,0,0.8,0,1.4l-4.4,0.1c0.1,0.8,0.3,1.4,0.7,1.9c0.4,0.5,0.9,0.8,1.5,0.8
		c0.7,0,1.4-0.2,2.2-0.5l-0.1,2c-0.6,0.3-1.4,0.5-2.4,0.5c-1.2,0-2.1-0.5-2.7-1.5c-0.6-1-0.9-2.2-0.9-3.6c0-1.4,0.3-2.7,0.9-3.8
		c0.6-1.1,1.4-1.6,2.5-1.6c1,0,1.7,0.4,2.2,1.2C117.8,12.7,118.1,13.8,118.1,15z M116.5,14.9c0-1.6-0.5-2.3-1.4-2.3
		c-0.9,0-1.4,0.8-1.5,2.4L116.5,14.9z"/>
	<path fill="#BDE7FF" d="M123.9,11.2l-0.4,2.4c-0.3-0.2-0.7-0.3-1-0.3c-0.7,0-1.1,0.4-1.3,1.3c0,2.7,0,4.8,0,6.3h-1.8
		c0.1-2,0.1-3.7,0.1-5c0-1.6-0.1-3.1-0.3-4.6l1.8-0.3c0.1,0.7,0.1,1.2,0.1,1.3h0.1c0.4-1,1-1.4,1.7-1.4
		C123.1,10.9,123.5,11,123.9,11.2z"/>
</g>
<g>
</g>
<g>
</g>
<g>
</g>
<g>
</g>
<g>
</g>
<g>
</g>
<g>
</g>
<g>
</g>
<g>
</g>
<g>
</g>
<g>
</g>
<g>
</g>
<g>
</g>
<g>
</g>
<g>
</g>
</svg>
